<svg width="2224" height="1316" viewBox="0 0 2224 1316" fill="none" xmlns="http://www.w3.org/2000/svg">
<path d="M1112.01 118.227C814.387 118.227 572.24 360.373 572.24 658C572.24 955.627 814.387 1197.77 1112.01 1197.77C1409.64 1197.77 1651.77 955.627 1651.77 658C1651.77 360.373 1409.64 118.227 1112.01 118.227ZM1112.01 1269.13C998.96 1269.13 887.013 1253.69 779.307 1223.25C674.92 1193.75 574.8 1150.25 481.693 1093.99C304.787 987.08 157.467 836.693 54.2932 658C157.467 479.307 304.787 328.92 481.693 222.013C574.8 165.747 674.92 122.253 779.307 92.7467C887.013 62.3066 998.96 46.8667 1112.01 46.8667C1225.07 46.8667 1337 62.3066 1444.71 92.7467C1549.09 122.253 1649.23 165.747 1742.32 222.013C1919.23 328.92 2066.55 479.307 2169.72 658C2066.55 836.693 1919.23 987.08 1742.32 1093.99C1649.23 1150.25 1549.09 1193.75 1444.71 1223.25C1337 1253.69 1225.07 1269.13 1112.01 1269.13Z" fill="black"/>
<path d="M1112.01 1151.11C839.667 1151.11 618.907 930.334 618.907 658C618.907 385.667 839.667 164.894 1112.01 164.894C1384.35 164.894 1605.11 385.667 1605.11 658C1605.11 930.334 1384.35 1151.11 1112.01 1151.11ZM1112.01 0.200317C633.053 0.200317 216.187 265.92 0.733398 658C216.187 1050.08 633.053 1315.8 1112.01 1315.8C1590.96 1315.8 2007.84 1050.08 2223.28 658C2007.84 265.92 1590.96 0.200317 1112.01 0.200317ZM893.307 113.867C677.947 200.734 525.574 411.907 525.574 658C525.574 904.094 677.947 1115.27 893.307 1202.13C859.174 1195.72 825.373 1187.77 792 1178.35C691.64 1149.97 595.36 1108.16 505.827 1054.05C343.413 955.894 206.933 819.654 108.547 658C206.933 496.347 343.413 360.107 505.827 261.947C595.36 207.84 691.64 166.027 792 137.654C825.373 128.227 859.174 120.28 893.307 113.867ZM1330.72 113.867C1364.84 120.28 1398.64 128.227 1432.01 137.654C1532.37 166.027 1628.67 207.84 1718.19 261.947C1880.6 360.107 2017.08 496.347 2115.48 658C2017.08 819.654 1880.6 955.894 1718.19 1054.05C1628.67 1108.16 1532.37 1149.97 1432.01 1178.35C1398.64 1187.77 1364.84 1195.72 1330.72 1202.13C1546.07 1115.27 1698.44 904.094 1698.44 658C1698.44 411.907 1546.07 200.734 1330.72 113.867Z" fill="black"/>
<path d="M1425.25 658C1425.25 831 1285 971.24 1112.01 971.24C939.013 971.24 798.773 831 798.773 658C798.773 485 939.013 344.76 1112.01 344.76C1285 344.76 1425.25 485 1425.25 658Z" fill="black"/>
</svg>
