<svg width="2223" height="1654" viewBox="0 0 2223 1654" fill="none" xmlns="http://www.w3.org/2000/svg">
<path d="M369.986 407.867C217.96 517.8 91.3062 660.68 0.452881 825.987C215.893 1218.07 632.773 1483.8 1111.72 1483.8C1288.73 1483.8 1457.28 1447.49 1610.31 1381.92L1406.15 1221.59C1323.99 1282.84 1222.08 1319.09 1111.72 1319.09C839.386 1319.09 618.626 1098.33 618.626 825.987C618.626 757.76 632.493 692.774 657.533 633.68L369.986 407.867ZM1111.72 168.187C934.066 168.187 764.96 204.747 611.493 270.774L815.986 431.374C898.373 369.534 1000.77 332.893 1111.72 332.893C1384.07 332.893 1604.83 553.654 1604.83 825.987C1604.83 894.8 1590.75 960.32 1565.28 1019.81L1852.12 1245.08C2004.75 1135 2131.88 991.787 2223 825.987C2007.55 433.92 1590.68 168.187 1111.72 168.187ZM1401.05 1336.25L1418.52 1349.97C1396.19 1356 1373.69 1361.37 1351.08 1366.05C1344.63 1367.39 1338.15 1368.68 1331.67 1369.91C1355.43 1360.28 1378.6 1349.04 1401.05 1336.25ZM369.373 526.054L547.413 665.88C532.707 717.68 525.293 771.28 525.293 825.987C525.293 1072.08 677.667 1283.25 893.013 1370.13C858.893 1363.71 825.093 1355.77 791.72 1346.33C691.36 1317.96 595.08 1276.15 505.547 1222.04C343.133 1123.89 206.653 987.654 108.266 826C144.466 766.547 186.013 710.214 232.186 658C274.266 610.44 320.227 566.24 369.373 526.054ZM891.72 282.093C867.453 291.92 843.813 303.427 820.907 316.56L803.04 302.52C825.707 296.347 848.56 290.867 871.533 286.093C878.24 284.707 884.973 283.36 891.72 282.093ZM1330.43 281.854C1364.56 288.28 1398.36 296.214 1431.73 305.64C1532.09 334.014 1628.37 375.84 1717.91 429.934C1880.32 528.094 2016.8 664.334 2115.19 825.987C2078.87 885.64 2037.15 942.174 1990.75 994.547C1948.47 1042.29 1902.24 1086.65 1852.83 1126.96L1675.57 987.76C1690.59 935.467 1698.16 881.307 1698.16 825.987C1698.16 579.894 1545.79 368.72 1330.43 281.854Z" fill="black"/>
<path d="M807.414 751.4L1256.32 1103.92C1213.07 1126.48 1163.88 1139.23 1111.72 1139.23C938.733 1139.23 798.48 998.974 798.48 825.987C798.48 800.28 801.574 775.307 807.414 751.4Z" fill="black"/>
<path d="M1424.96 825.987C1424.96 852.307 1421.71 877.867 1415.61 902.28L965.573 548.867C1009.2 525.8 1058.93 512.747 1111.72 512.747C1284.72 512.747 1424.96 653 1424.96 825.987Z" fill="black"/>
<path d="M2138.67 1548.68L2056.28 1653.59L84.7859 105.307L167.159 0.41339L2138.67 1548.68Z" fill="black"/>
<path d="M1621.29 1004.47C1641.35 947.32 1651.49 887.44 1651.49 825.987C1651.49 528.36 1409.36 286.227 1111.72 286.227C1006.05 286.227 905.093 316.213 817.6 373.293L704.44 284.427C834.747 238.227 971.4 214.854 1111.72 214.854C1224.77 214.854 1336.72 230.293 1444.43 260.733C1548.81 290.24 1648.95 333.733 1742.04 390C1918.95 496.907 2066.27 647.294 2169.44 825.987C2128.44 896.973 2080.16 963.987 2025.68 1025.49C1973.44 1084.48 1915.44 1138.48 1852.91 1186.36L1621.29 1004.47ZM1111.72 1437.12C998.666 1437.12 886.733 1421.69 779.026 1391.24C674.64 1361.73 574.507 1318.24 481.413 1261.99C304.507 1155.07 157.187 1004.69 54.0134 826C94.8934 755.227 142.987 688.413 197.24 627.08C249.267 568.267 307 514.4 369.24 466.613L601.613 649.107C581.92 705.813 571.96 765.16 571.96 825.987C571.96 1123.61 814.093 1365.76 1111.72 1365.76C1216.79 1365.76 1317.27 1336.07 1404.45 1279.59L1517.24 1368.17C1387.47 1413.96 1251.41 1437.12 1111.72 1437.12Z" fill="black"/>
</svg>
