<svg width="38" height="38" viewBox="0 0 38 38" fill="none" xmlns="http://www.w3.org/2000/svg">
<g clip-path="url(#clip0_55_83)">
<path d="M18.9998 12.6667C17.7472 12.6667 16.5227 13.0381 15.4812 13.734C14.4397 14.4299 13.628 15.4191 13.1486 16.5763C12.6692 17.7336 12.5438 19.007 12.7882 20.2356C13.0326 21.4641 13.6358 22.5926 14.5215 23.4783C15.4072 24.3641 16.5357 24.9673 17.7643 25.2116C18.9928 25.456 20.2662 25.3306 21.4235 24.8512C22.5808 24.3719 23.5699 23.5601 24.2658 22.5186C24.9617 21.4771 25.3332 20.2526 25.3332 19C25.3332 17.3203 24.6659 15.7094 23.4782 14.5216C22.2905 13.3339 20.6795 12.6667 18.9998 12.6667ZM18.9998 22.1667C18.3735 22.1667 17.7613 21.9809 17.2405 21.633C16.7198 21.285 16.3139 20.7905 16.0742 20.2118C15.8345 19.6332 15.7718 18.9965 15.894 18.3822C16.0162 17.7679 16.3178 17.2037 16.7607 16.7608C17.2035 16.318 17.7678 16.0164 18.3821 15.8942C18.9963 15.772 19.633 15.8347 20.2117 16.0744C20.7903 16.314 21.2849 16.7199 21.6328 17.2407C21.9808 17.7614 22.1665 18.3737 22.1665 19C22.1665 19.8398 21.8329 20.6453 21.239 21.2392C20.6451 21.833 19.8397 22.1667 18.9998 22.1667Z" fill="#646464"/>
<path d="M33.7155 22.0083L33.0125 21.603C33.329 19.881 33.329 18.1158 33.0125 16.3938L33.7155 15.9885C34.2561 15.6766 34.73 15.2613 35.1101 14.7663C35.4902 14.2712 35.7691 13.7062 35.9308 13.1034C36.0925 12.5006 36.134 11.8718 36.0527 11.253C35.9714 10.6342 35.7691 10.0374 35.4572 9.49683C35.1453 8.95623 34.73 8.48234 34.2349 8.10224C33.7399 7.72214 33.1749 7.44326 32.5721 7.28153C31.9692 7.1198 31.3405 7.07839 30.7217 7.15966C30.1029 7.24092 29.5061 7.44328 28.9655 7.75517L28.2609 8.16208C26.9302 7.02512 25.4009 6.14373 23.75 5.56225V4.75C23.75 3.49022 23.2496 2.28204 22.3588 1.39124C21.468 0.500445 20.2598 0 19 0C17.7402 0 16.532 0.500445 15.6412 1.39124C14.7505 2.28204 14.25 3.49022 14.25 4.75V5.56225C12.5992 6.14581 11.0704 7.02937 9.74067 8.16842L9.03292 7.75833C7.94112 7.12844 6.6438 6.95807 5.42638 7.2847C4.20896 7.61132 3.17115 8.40819 2.54126 9.5C1.91137 10.5918 1.741 11.8891 2.06762 13.1065C2.39425 14.324 3.19112 15.3618 4.28292 15.9917L4.98592 16.397C4.66943 18.119 4.66943 19.8842 4.98592 21.6062L4.28292 22.0115C3.19112 22.6414 2.39425 23.6792 2.06762 24.8966C1.741 26.114 1.91137 27.4114 2.54126 28.5032C3.17115 29.595 4.20896 30.3918 5.42638 30.7185C6.6438 31.0451 7.94112 30.8747 9.03292 30.2448L9.73751 29.8379C11.0687 30.975 12.5986 31.8565 14.25 32.4378V33.25C14.25 34.5098 14.7505 35.718 15.6412 36.6088C16.532 37.4996 17.7402 38 19 38C20.2598 38 21.468 37.4996 22.3588 36.6088C23.2496 35.718 23.75 34.5098 23.75 33.25V32.4378C25.4008 31.8542 26.9296 30.9706 28.2593 29.8316L28.9671 30.2401C30.0589 30.87 31.3562 31.0403 32.5736 30.7137C33.7911 30.3871 34.8289 29.5902 35.4588 28.4984C36.0886 27.4066 36.259 26.1093 35.9324 24.8919C35.6058 23.6744 34.8089 22.6366 33.7171 22.0068L33.7155 22.0083ZM29.6812 16.0297C30.2174 17.9725 30.2174 20.0243 29.6812 21.9672C29.5876 22.3053 29.6089 22.665 29.7419 22.9897C29.8749 23.3144 30.1119 23.5857 30.4158 23.7611L32.1322 24.7523C32.496 24.9622 32.7616 25.3081 32.8704 25.7139C32.9792 26.1196 32.9224 26.552 32.7125 26.9159C32.5025 27.2797 32.1566 27.5453 31.7508 27.6541C31.3451 27.7629 30.9127 27.7061 30.5488 27.4962L28.8293 26.5018C28.5252 26.3257 28.171 26.2557 27.8227 26.303C27.4744 26.3503 27.1518 26.5122 26.9056 26.7631C25.4963 28.2018 23.7208 29.2283 21.7708 29.7318C21.4305 29.8193 21.1289 30.0176 20.9136 30.2954C20.6983 30.5731 20.5816 30.9146 20.5818 31.2661V33.25C20.5818 33.6699 20.4149 34.0727 20.118 34.3696C19.8211 34.6665 19.4184 34.8333 18.9984 34.8333C18.5785 34.8333 18.1758 34.6665 17.8788 34.3696C17.5819 34.0727 17.4151 33.6699 17.4151 33.25V31.2677C17.4153 30.9162 17.2985 30.5747 17.0832 30.297C16.8679 30.0192 16.5664 29.8209 16.226 29.7334C14.2759 29.2278 12.5009 28.1991 11.0928 26.7583C10.8467 26.5074 10.524 26.3456 10.1757 26.2983C9.8274 26.251 9.47326 26.3209 9.16909 26.4971L7.45276 27.4898C7.27262 27.5954 7.07337 27.6644 6.86649 27.6927C6.6596 27.7209 6.44917 27.708 6.24729 27.6547C6.04542 27.6013 5.8561 27.5085 5.69022 27.3817C5.52435 27.2548 5.38521 27.0964 5.2808 26.9156C5.17639 26.7348 5.10878 26.5351 5.08187 26.328C5.05495 26.1209 5.06926 25.9106 5.12397 25.7091C5.17868 25.5076 5.27271 25.3189 5.40065 25.1538C5.52859 24.9888 5.6879 24.8507 5.86942 24.7475L7.58576 23.7563C7.88968 23.581 8.12674 23.3097 8.25972 22.9849C8.39269 22.6602 8.41405 22.3006 8.32042 21.9624C7.78424 20.0196 7.78424 17.9678 8.32042 16.0249C8.41236 15.6875 8.38999 15.3291 8.2568 15.0057C8.12361 14.6823 7.88709 14.4121 7.58417 14.2373L5.86784 13.2462C5.50397 13.0362 5.23842 12.6903 5.12959 12.2845C5.02077 11.8788 5.07759 11.4464 5.28755 11.0825C5.49751 10.7187 5.84342 10.4531 6.24918 10.3443C6.65494 10.2355 7.08731 10.2923 7.45117 10.5022L9.17067 11.4966C9.47401 11.6731 9.82741 11.7439 10.1753 11.6978C10.5233 11.6516 10.846 11.4912 11.0928 11.2417C12.5021 9.80296 14.2776 8.77645 16.2276 8.27292C16.569 8.18514 16.8714 7.98594 17.0868 7.70688C17.3022 7.42781 17.4183 7.08485 17.4167 6.73233V4.75C17.4167 4.33007 17.5835 3.92735 17.8804 3.63041C18.1774 3.33348 18.5801 3.16667 19 3.16667C19.4199 3.16667 19.8227 3.33348 20.1196 3.63041C20.4165 3.92735 20.5833 4.33007 20.5833 4.75V6.73233C20.5832 7.08377 20.6999 7.42527 20.9152 7.70304C21.1305 7.98082 21.4321 8.17908 21.7724 8.26658C23.7231 8.77191 25.4986 9.80065 26.9072 11.2417C27.1533 11.4926 27.476 11.6544 27.8243 11.7017C28.1726 11.749 28.5268 11.6791 28.8309 11.5029L30.5473 10.5102C30.7274 10.4046 30.9266 10.3356 31.1335 10.3073C31.3404 10.2791 31.5508 10.292 31.7527 10.3453C31.9546 10.3987 32.1439 10.4915 32.3098 10.6183C32.4757 10.7452 32.6148 10.9036 32.7192 11.0844C32.8236 11.2652 32.8912 11.4649 32.9181 11.672C32.9451 11.8791 32.9307 12.0894 32.876 12.2909C32.8213 12.4924 32.7273 12.6811 32.5994 12.8462C32.4714 13.0112 32.3121 13.1493 32.1306 13.2525L30.4143 14.2437C30.1119 14.419 29.8761 14.6893 29.7435 15.0127C29.6109 15.336 29.589 15.6942 29.6812 16.0312V16.0297Z" fill="#646464"/>
</g>
<defs>
<clipPath id="clip0_55_83">
<rect width="38" height="38" fill="white"/>
</clipPath>
</defs>
</svg>
